<svg width="22" height="18" viewBox="0 0 22 18" fill="none" xmlns="http://www.w3.org/2000/svg">
<path fill-rule="evenodd" clip-rule="evenodd" d="M12.3307 0.435488L12.4222 0.329505C12.8187 -0.0760396 13.4427 -0.107235 13.8742 0.235918L13.9778 0.329505L21.6778 8.2045L21.7234 8.25396L21.784 8.33028L21.8629 8.45543L21.9217 8.58225L21.9606 8.70076L21.9924 8.86714L22 9L21.9969 9.08464L21.9777 9.22582L21.9453 9.35116L21.897 9.47612L21.8394 9.5858L21.7583 9.70363L21.6778 9.7955L13.9778 17.6705C13.5482 18.1098 12.8518 18.1098 12.4222 17.6705C12.0257 17.2649 11.9951 16.6268 12.3307 16.1855L12.4222 16.0795L18.2424 10.125H1.1C0.492487 10.125 0 9.62132 0 9C0 8.37868 0.492487 7.875 1.1 7.875H18.2446L12.4222 1.9205C12.0257 1.51495 11.9951 0.876816 12.3307 0.435488L12.4222 0.329505L12.3307 0.435488Z" fill="white"/>
</svg>
