<svg width="14" height="18" viewBox="0 0 14 18" fill="none" xmlns="http://www.w3.org/2000/svg">
<path d="M1 16C1 17.1 1.9 18 3 18H11C12.1 18 13 17.1 13 16V4H1V16ZM4.17 9.59C3.98302 9.40302 3.87798 9.14943 3.87798 8.885C3.87798 8.62057 3.98302 8.36698 4.17 8.18C4.35698 7.99302 4.61057 7.88798 4.875 7.88798C5.13943 7.88798 5.39302 7.99302 5.58 8.18L7 9.59L8.41 8.18C8.59698 7.99302 8.85057 7.88798 9.115 7.88798C9.37943 7.88798 9.63302 7.99302 9.82 8.18C10.007 8.36698 10.112 8.62057 10.112 8.885C10.112 9.14943 10.007 9.40302 9.82 9.59L8.41 11L9.82 12.41C9.91258 12.5026 9.98602 12.6125 10.0361 12.7335C10.0862 12.8544 10.112 12.9841 10.112 13.115C10.112 13.2459 10.0862 13.3756 10.0361 13.4965C9.98602 13.6175 9.91258 13.7274 9.82 13.82C9.72742 13.9126 9.61751 13.986 9.49654 14.0361C9.37558 14.0862 9.24593 14.112 9.115 14.112C8.98407 14.112 8.85442 14.0862 8.73346 14.0361C8.61249 13.986 8.50258 13.9126 8.41 13.82L7 12.41L5.59 13.82C5.49742 13.9126 5.38751 13.986 5.26654 14.0361C5.14558 14.0862 5.01593 14.112 4.885 14.112C4.75407 14.112 4.62442 14.0862 4.50346 14.0361C4.38249 13.986 4.27258 13.9126 4.18 13.82C4.08742 13.7274 4.01398 13.6175 3.96387 13.4965C3.91377 13.3756 3.88798 13.2459 3.88798 13.115C3.88798 12.9841 3.91377 12.8544 3.96387 12.7335C4.01398 12.6125 4.08742 12.5026 4.18 12.41L5.59 11L4.17 9.59ZM13 1H10.5L9.79 0.29C9.61 0.11 9.35 0 9.09 0H4.91C4.65 0 4.39 0.11 4.21 0.29L3.5 1H1C0.45 1 0 1.45 0 2C0 2.55 0.45 3 1 3H13C13.55 3 14 2.55 14 2C14 1.45 13.55 1 13 1Z" fill="#FDB623"/>
</svg>
