<svg width="30" height="30" viewBox="0 0 27 24" fill="none" xmlns="http://www.w3.org/2000/svg">
<path d="M15.25 0.75C12.2663 0.75 9.40483 1.93526 7.29505 4.04505C5.18526 6.15483 4 9.01631 4 12H0.25L5.1125 16.8625L5.2 17.0375L10.25 12H6.5C6.5 7.1625 10.4125 3.25 15.25 3.25C20.0875 3.25 24 7.1625 24 12C24 16.8375 20.0875 20.75 15.25 20.75C12.8375 20.75 10.65 19.7625 9.075 18.175L7.3 19.95C8.34177 20.9975 9.58061 21.8284 10.9451 22.3948C12.3095 22.9612 13.7726 23.2518 15.25 23.25C18.2337 23.25 21.0952 22.0647 23.205 19.9549C25.3147 17.8452 26.5 14.9837 26.5 12C26.5 9.01631 25.3147 6.15483 23.205 4.04505C21.0952 1.93526 18.2337 0.75 15.25 0.75ZM14 7V13.25L19.3125 16.4L20.275 14.8L15.875 12.1875V7H14Z" fill="#D9D9D9"/>
</svg>
