<svg width="30" height="30" viewBox="0 0 30 25" fill="none" xmlns="http://www.w3.org/2000/svg">
<path d="M16.6667 0C13.3514 0 10.172 1.31696 7.82783 3.66117C5.48362 6.00537 4.16667 9.18479 4.16667 12.5H0L5.40278 17.9028L5.5 18.0972L11.1111 12.5H6.94444C6.94444 7.125 11.2917 2.77778 16.6667 2.77778C22.0417 2.77778 26.3889 7.125 26.3889 12.5C26.3889 17.875 22.0417 22.2222 16.6667 22.2222C13.9861 22.2222 11.5556 21.125 9.80556 19.3611L7.83333 21.3333C8.99086 22.4972 10.3673 23.4204 11.8834 24.0498C13.3994 24.6791 15.0251 25.002 16.6667 25C19.9819 25 23.1613 23.683 25.5056 21.3388C27.8497 18.9947 29.1667 15.8152 29.1667 12.5C29.1667 9.18479 27.8497 6.00537 25.5056 3.66117C23.1613 1.31696 19.9819 0 16.6667 0ZM15.2778 6.94444V13.8889L21.1806 17.3889L22.25 15.6111L17.3611 12.7083V6.94444H15.2778Z" fill="#FDB623"/>
</svg>
