<svg width="34" height="34" viewBox="0 0 34 34" fill="none" xmlns="http://www.w3.org/2000/svg">
<path d="M0.00668897 33.3333L2.26002 25.0533C0.775252 22.5081 -0.00481772 19.6133 2.23871e-05 16.6667C2.23871e-05 7.46167 7.46169 0 16.6667 0C25.8717 0 33.3334 7.46167 33.3334 16.6667C33.3334 25.8717 25.8717 33.3333 16.6667 33.3333C13.7213 33.3381 10.8278 32.5586 8.28335 31.075L0.00668897 33.3333ZM10.6517 8.84667C10.4365 8.86003 10.2261 8.91672 10.0334 9.01333C9.85256 9.11572 9.68752 9.24371 9.54335 9.39333C9.34336 9.58167 9.23002 9.745 9.10836 9.90333C8.49237 10.705 8.16104 11.689 8.16669 12.7C8.17002 13.5167 8.38336 14.3117 8.71669 15.055C9.39836 16.5583 10.52 18.15 12.0017 19.625C12.3584 19.98 12.7067 20.3367 13.0817 20.6683C14.9207 22.2874 17.1121 23.4551 19.4817 24.0783L20.43 24.2233C20.7384 24.24 21.0467 24.2167 21.3567 24.2017C21.8421 24.1766 22.316 24.0452 22.745 23.8167C22.9633 23.7042 23.1763 23.5819 23.3834 23.45C23.3834 23.45 23.455 23.4033 23.5917 23.3C23.8167 23.1333 23.955 23.015 24.1417 22.82C24.28 22.6767 24.4 22.5083 24.4917 22.3167C24.6217 22.045 24.7517 21.5267 24.805 21.095C24.845 20.765 24.8334 20.585 24.8284 20.4733C24.8217 20.295 24.6734 20.11 24.5117 20.0317L23.5417 19.5967C23.5417 19.5967 22.0917 18.965 21.2067 18.5617C21.1134 18.521 21.0134 18.4978 20.9117 18.4933C20.7977 18.4816 20.6824 18.4945 20.5738 18.531C20.4651 18.5675 20.3655 18.6268 20.2817 18.705V18.7017C20.2734 18.7017 20.1617 18.7967 18.9567 20.2567C18.8875 20.3496 18.7923 20.4198 18.683 20.4584C18.5738 20.497 18.4555 20.5022 18.3434 20.4733C18.2348 20.4443 18.1284 20.4075 18.025 20.3633C17.8184 20.2767 17.7467 20.2433 17.605 20.1817L17.5967 20.1783C16.6432 19.762 15.7604 19.1997 14.98 18.5117C14.77 18.3283 14.575 18.1283 14.375 17.935C13.7193 17.3071 13.1479 16.5967 12.675 15.8217L12.5767 15.6633C12.5061 15.5569 12.449 15.4422 12.4067 15.3217C12.3434 15.0767 12.5084 14.88 12.5084 14.88C12.5084 14.88 12.9134 14.4367 13.1017 14.1967C13.2585 13.9972 13.4048 13.7897 13.54 13.575C13.7367 13.2583 13.7984 12.9333 13.695 12.6817C13.2284 11.5417 12.745 10.4067 12.2484 9.28C12.15 9.05667 11.8584 8.89667 11.5934 8.865C11.5034 8.855 11.4134 8.845 11.3234 8.83833C11.0995 8.82721 10.8752 8.82944 10.6517 8.845V8.84667Z" fill="#D9D9D9"/>
</svg>
