<svg width="24" height="26" viewBox="0 0 34 34" fill="none" xmlns="http://www.w3.org/2000/svg">
<path d="M5.19441 33.2222C3.97708 33.2222 2.93663 32.7904 2.07308 31.9269C1.20955 31.0634 0.777786 30.0229 0.777786 28.8056V5.19442C0.777786 3.96944 1.20955 2.92247 2.07308 2.0535C2.93663 1.1845 3.97708 0.75 5.19441 0.75H16.4583V5.19442H5.19441V28.8056H28.8056V17.5417H33.25V28.8056C33.25 30.0229 32.8155 31.0634 31.9465 31.9269C31.0775 32.7904 30.0306 33.2222 28.8056 33.2222H5.19441ZM14.0833 23L11.0278 19.9167L25.75 5.19442H19.2361V0.75H33.25V14.7639H28.8056V8.27775L14.0833 23Z" fill="#333333"/>
</svg>
