<svg width="34" height="34" fill="#D9D9D9" viewBox="0 0 34 30"  xmlns="http://www.w3.org/2000/svg">
<path d="M28.3333 10C26.9444 10 25.7639 9.51389 24.7917 8.54167C23.8194 7.56944 23.3333 6.38889 23.3333 5C23.3333 3.61111 23.8194 2.43056 24.7917 1.45833C25.7639 0.486111 26.9444 0 28.3333 0C29.7222 0 30.9028 0.486111 31.875 1.45833C32.8472 2.43056 33.3333 3.61111 33.3333 5C33.3333 6.38889 32.8472 7.56944 31.875 8.54167C30.9028 9.51389 29.7222 10 28.3333 10ZM3.33333 30C2.41667 30 1.63222 29.6739 0.98 29.0217C0.326667 28.3683 0 27.5833 0 26.6667V6.66667C0 5.75 0.326667 4.96556 0.98 4.31333C1.63222 3.66 2.41667 3.33333 3.33333 3.33333H20.1667C20.0556 3.88889 20 4.44444 20 5C20 5.55556 20.0556 6.11111 20.1667 6.66667C20.3611 7.55556 20.6806 8.38167 21.125 9.145C21.5694 9.90944 22.1111 10.5833 22.75 11.1667L16.6667 15L3.33333 6.66667V10L16.6667 18.3333L25.4583 12.8333C25.9306 13 26.4028 13.125 26.875 13.2083C27.3472 13.2917 27.8333 13.3333 28.3333 13.3333C29.2222 13.3333 30.0972 13.1944 30.9583 12.9167C31.8194 12.6389 32.6111 12.2222 33.3333 11.6667V26.6667C33.3333 27.5833 33.0072 28.3683 32.355 29.0217C31.7017 29.6739 30.9167 30 30 30H3.33333Z" fill="#D9D9D9"/>
</svg>
