<svg width="34" height="34" viewBox="0 0 35 29" fill="none" xmlns="http://www.w3.org/2000/svg">
<path d="M34.8667 3.33333C33.5833 3.91667 32.2 4.3 30.7667 4.48333C32.2333 3.6 33.3667 2.2 33.9 0.516667C32.5167 1.35 30.9833 1.93333 29.3667 2.26667C28.05 0.833334 26.2 0 24.1 0C20.1833 0 16.9833 3.2 16.9833 7.15C16.9833 7.71667 17.05 8.26667 17.1667 8.78333C11.2333 8.48333 5.95 5.63333 2.43333 1.31667C1.81667 2.36667 1.46667 3.6 1.46667 4.9C1.46667 7.38333 2.71667 9.58333 4.65 10.8333C3.46667 10.8333 2.36667 10.5 1.4 10V10.05C1.4 13.5167 3.86667 16.4167 7.13333 17.0667C6.08455 17.3537 4.98349 17.3936 3.91667 17.1833C4.36934 18.6041 5.2559 19.8473 6.45169 20.7382C7.64749 21.6291 9.09241 22.1228 10.5833 22.15C8.05605 24.1507 4.92333 25.2322 1.7 25.2167C1.13333 25.2167 0.566667 25.1833 0 25.1167C3.16667 27.15 6.93333 28.3333 10.9667 28.3333C24.1 28.3333 31.3167 17.4333 31.3167 7.98333C31.3167 7.66667 31.3167 7.36667 31.3 7.05C32.7 6.05 33.9 4.78333 34.8667 3.33333Z" fill="#D9D9D9"/>
</svg>
