<svg width="34" height="34" viewBox="0 0 40 40" fill="none" xmlns="http://www.w3.org/2000/svg">
<path d="M20 0C21.8359 0 23.6068 0.234375 25.3125 0.703125C27.0182 1.17188 28.6133 1.84245 30.0977 2.71484C31.582 3.58724 32.9297 4.62891 34.1406 5.83984C35.3516 7.05078 36.3932 8.40495 37.2656 9.90234C38.138 11.3997 38.8086 12.9948 39.2773 14.6875C39.7461 16.3802 39.987 18.151 40 20C40 21.8359 39.7656 23.6068 39.2969 25.3125C38.8281 27.0182 38.1576 28.6133 37.2852 30.0977C36.4128 31.582 35.3711 32.9297 34.1602 34.1406C32.9492 35.3516 31.5951 36.3932 30.0977 37.2656C28.6003 38.138 27.0052 38.8086 25.3125 39.2773C23.6198 39.7461 21.849 39.987 20 40C18.1641 40 16.3932 39.7656 14.6875 39.2969C12.9818 38.8281 11.3867 38.1576 9.90234 37.2852C8.41797 36.4128 7.07031 35.3711 5.85938 34.1602C4.64844 32.9492 3.60677 31.5951 2.73438 30.0977C1.86198 28.6003 1.19141 27.0117 0.722656 25.332C0.253906 23.6523 0.0130208 21.875 0 20C0 18.1641 0.234375 16.3932 0.703125 14.6875C1.17188 12.9818 1.84245 11.3867 2.71484 9.90234C3.58724 8.41797 4.62891 7.07031 5.83984 5.85938C7.05078 4.64844 8.40495 3.60677 9.90234 2.73438C11.3997 1.86198 12.9883 1.19141 14.668 0.722656C16.3477 0.253906 18.125 0.0130208 20 0ZM20 37.5C21.6016 37.5 23.1445 37.2917 24.6289 36.875C26.1133 36.4583 27.5065 35.8724 28.8086 35.1172C30.1107 34.362 31.2956 33.444 32.3633 32.3633C33.431 31.2826 34.3424 30.1042 35.0977 28.8281C35.8529 27.5521 36.4453 26.1589 36.875 24.6484C37.3047 23.138 37.513 21.5885 37.5 20C37.5 18.3984 37.2917 16.8555 36.875 15.3711C36.4583 13.8867 35.8724 12.4935 35.1172 11.1914C34.362 9.88932 33.444 8.70443 32.3633 7.63672C31.2826 6.56901 30.1042 5.65755 28.8281 4.90234C27.5521 4.14714 26.1589 3.55469 24.6484 3.125C23.138 2.69531 21.5885 2.48698 20 2.5C18.3984 2.5 16.8555 2.70833 15.3711 3.125C13.8867 3.54167 12.4935 4.1276 11.1914 4.88281C9.88932 5.63802 8.70443 6.55599 7.63672 7.63672C6.56901 8.71745 5.65755 9.89583 4.90234 11.1719C4.14714 12.4479 3.55469 13.8411 3.125 15.3516C2.69531 16.862 2.48698 18.4115 2.5 20C2.5 21.6016 2.70833 23.1445 3.125 24.6289C3.54167 26.1133 4.1276 27.5065 4.88281 28.8086C5.63802 30.1107 6.55599 31.2956 7.63672 32.3633C8.71745 33.431 9.89583 34.3424 11.1719 35.0977C12.4479 35.8529 13.8411 36.4453 15.3516 36.875C16.862 37.3047 18.4115 37.513 20 37.5ZM31.6602 20.3125L32.5977 17.5H34.0625L32.4023 22.5H30.9375L30 19.6875L29.0625 22.5H27.5977L25.9375 17.5H27.4023L28.3398 20.3125L29.2773 17.5H30.7227L31.6602 20.3125ZM22.5977 17.5H24.0625L22.4023 22.5H20.9375L20 19.6875L19.0625 22.5H17.5977L15.9375 17.5H17.4023L18.3398 20.3125L19.2773 17.5H20.7227L21.6602 20.3125L22.5977 17.5ZM12.5977 17.5H14.0625L12.4023 22.5H10.9375L10 19.6875L9.0625 22.5H7.59766L5.9375 17.5H7.40234L8.33984 20.3125L9.27734 17.5H10.7227L11.6602 20.3125L12.5977 17.5Z" fill="#D9D9D9"/>
</svg>
