<svg width="24" height="26" viewBox="0 0 24 26" fill="none" xmlns="http://www.w3.org/2000/svg">
<path d="M8.47059 20.8C7.69412 20.8 7.02965 20.5456 6.47718 20.0369C5.92376 19.5273 5.64706 18.915 5.64706 18.2V2.6C5.64706 1.885 5.92376 1.2727 6.47718 0.7631C7.02965 0.254367 7.69412 0 8.47059 0H21.1765C21.9529 0 22.6179 0.254367 23.1713 0.7631C23.7238 1.2727 24 1.885 24 2.6V18.2C24 18.915 23.7238 19.5273 23.1713 20.0369C22.6179 20.5456 21.9529 20.8 21.1765 20.8H8.47059ZM2.82353 26C2.04706 26 1.38212 25.7456 0.828706 25.2369C0.276235 24.7273 0 24.115 0 23.4V6.5C0 6.13167 0.13553 5.8227 0.406588 5.5731C0.676706 5.32437 1.01176 5.2 1.41176 5.2C1.81176 5.2 2.14729 5.32437 2.41835 5.5731C2.68847 5.8227 2.82353 6.13167 2.82353 6.5V23.4H16.9412C17.3412 23.4 17.6767 23.5248 17.9478 23.7744C18.2179 24.0231 18.3529 24.3317 18.3529 24.7C18.3529 25.0683 18.2179 25.3769 17.9478 25.6256C17.6767 25.8752 17.3412 26 16.9412 26H2.82353Z" fill="#333333"/>
</svg>
