<svg width="24" height="26" viewBox="0 0 24 28" fill="none" xmlns="http://www.w3.org/2000/svg">
<path d="M20 19.7346C18.9867 19.7346 18.08 20.1551 17.3867 20.8139L7.88 14.9972C7.94667 14.6748 8 14.3525 8 14.0161C8 13.6797 7.94667 13.3573 7.88 13.0349L17.28 7.27434C18 7.97514 18.9467 8.40964 20 8.40964C22.2133 8.40964 24 6.53149 24 4.20482C24 1.87815 22.2133 0 20 0C17.7867 0 16 1.87815 16 4.20482C16 4.5412 16.0533 4.86357 16.12 5.18594L6.72 10.9465C6 10.2457 5.05333 9.81124 4 9.81124C1.78667 9.81124 0 11.6894 0 14.0161C0 16.3427 1.78667 18.2209 4 18.2209C5.05333 18.2209 6 17.7864 6.72 17.0856L16.2133 22.9163C16.1467 23.2106 16.1067 23.519 16.1067 23.8273C16.1067 26.0839 17.8533 27.92 20 27.92C22.1467 27.92 23.8933 26.0839 23.8933 23.8273C23.8933 21.5707 22.1467 19.7346 20 19.7346Z" fill="#333333"/>
</svg>
