<svg width="34" height="34" viewBox="0 0 34 34" fill="none" xmlns="http://www.w3.org/2000/svg">
<path d="M9.66667 0H23.6667C29 0 33.3333 4.33333 33.3333 9.66667V23.6667C33.3333 26.2304 32.3149 28.6892 30.502 30.502C28.6892 32.3149 26.2304 33.3333 23.6667 33.3333H9.66667C4.33333 33.3333 0 29 0 23.6667V9.66667C0 7.10291 1.01845 4.64415 2.8313 2.8313C4.64415 1.01845 7.10291 0 9.66667 0ZM9.33333 3.33333C7.74203 3.33333 6.21591 3.96547 5.09069 5.09069C3.96547 6.21591 3.33333 7.74203 3.33333 9.33333V24C3.33333 27.3167 6.01667 30 9.33333 30H24C25.5913 30 27.1174 29.3679 28.2426 28.2426C29.3679 27.1174 30 25.5913 30 24V9.33333C30 6.01667 27.3167 3.33333 24 3.33333H9.33333ZM25.4167 5.83333C25.9692 5.83333 26.4991 6.05283 26.8898 6.44353C27.2805 6.83423 27.5 7.36413 27.5 7.91667C27.5 8.4692 27.2805 8.9991 26.8898 9.38981C26.4991 9.78051 25.9692 10 25.4167 10C24.8641 10 24.3342 9.78051 23.9435 9.38981C23.5528 8.9991 23.3333 8.4692 23.3333 7.91667C23.3333 7.36413 23.5528 6.83423 23.9435 6.44353C24.3342 6.05283 24.8641 5.83333 25.4167 5.83333ZM16.6667 8.33333C18.8768 8.33333 20.9964 9.21131 22.5592 10.7741C24.122 12.3369 25 14.4565 25 16.6667C25 18.8768 24.122 20.9964 22.5592 22.5592C20.9964 24.122 18.8768 25 16.6667 25C14.4565 25 12.3369 24.122 10.7741 22.5592C9.21131 20.9964 8.33333 18.8768 8.33333 16.6667C8.33333 14.4565 9.21131 12.3369 10.7741 10.7741C12.3369 9.21131 14.4565 8.33333 16.6667 8.33333ZM16.6667 11.6667C15.3406 11.6667 14.0688 12.1934 13.1311 13.1311C12.1934 14.0688 11.6667 15.3406 11.6667 16.6667C11.6667 17.9927 12.1934 19.2645 13.1311 20.2022C14.0688 21.1399 15.3406 21.6667 16.6667 21.6667C17.9927 21.6667 19.2645 21.1399 20.2022 20.2022C21.1399 19.2645 21.6667 17.9927 21.6667 16.6667C21.6667 15.3406 21.1399 14.0688 20.2022 13.1311C19.2645 12.1934 17.9927 11.6667 16.6667 11.6667Z" fill="#D9D9D9"/>
</svg>
