<svg width="100px" height="100px" viewBox="0 0 200 200" fill="none" xmlns="http://www.w3.org/2000/svg">
<g clip-path="url(#clip0_4_992)">
<path d="M0 6.25C0 4.5924 0.65848 3.00269 1.83058 1.83058C3.00269 0.65848 4.5924 0 6.25 0L43.75 0C45.4076 0 46.9973 0.65848 48.1694 1.83058C49.3415 3.00269 50 4.5924 50 6.25C50 7.9076 49.3415 9.49732 48.1694 10.6694C46.9973 11.8415 45.4076 12.5 43.75 12.5H33.5C21.902 12.5 12.5 21.902 12.5 33.5V43.75C12.5 45.4076 11.8415 46.9973 10.6694 48.1694C9.49732 49.3415 7.9076 50 6.25 50C4.5924 50 3.00269 49.3415 1.83058 48.1694C0.65848 46.9973 0 45.4076 0 43.75V6.25ZM150 6.25C150 4.5924 150.658 3.00269 151.831 1.83058C153.003 0.65848 154.592 0 156.25 0L193.75 0C195.408 0 196.997 0.65848 198.169 1.83058C199.342 3.00269 200 4.5924 200 6.25V43.75C200 45.4076 199.342 46.9973 198.169 48.1694C196.997 49.3415 195.408 50 193.75 50C192.092 50 190.503 49.3415 189.331 48.1694C188.158 46.9973 187.5 45.4076 187.5 43.75V33.5C187.5 21.902 178.098 12.5 166.5 12.5H156.25C154.592 12.5 153.003 11.8415 151.831 10.6694C150.658 9.49732 150 7.9076 150 6.25ZM6.25 150C7.9076 150 9.49732 150.658 10.6694 151.831C11.8415 153.003 12.5 154.592 12.5 156.25V166.5C12.5 178.098 21.902 187.5 33.5 187.5H43.75C45.4076 187.5 46.9973 188.158 48.1694 189.331C49.3415 190.503 50 192.092 50 193.75C50 195.408 49.3415 196.997 48.1694 198.169C46.9973 199.342 45.4076 200 43.75 200H6.25C4.5924 200 3.00269 199.342 1.83058 198.169C0.65848 196.997 0 195.408 0 193.75V156.25C0 154.592 0.65848 153.003 1.83058 151.831C3.00269 150.658 4.5924 150 6.25 150ZM193.75 150C195.408 150 196.997 150.658 198.169 151.831C199.342 153.003 200 154.592 200 156.25V193.75C200 195.408 199.342 196.997 198.169 198.169C196.997 199.342 195.408 200 193.75 200H156.25C154.592 200 153.003 199.342 151.831 198.169C150.658 196.997 150 195.408 150 193.75C150 192.092 150.658 190.503 151.831 189.331C153.003 188.158 154.592 187.5 156.25 187.5H166.5C178.098 187.5 187.5 178.098 187.5 166.5V156.25C187.5 154.592 188.158 153.003 189.331 151.831C190.503 150.658 192.092 150 193.75 150ZM50 56.25C50 52.7982 52.7982 50 56.25 50C59.7018 50 62.5 52.7982 62.5 56.25C62.5 59.7018 59.7018 62.5 56.25 62.5C52.7982 62.5 50 59.7018 50 56.25Z" fill="#FDB623"/>
<path d="M87.5 25H25V87.5H87.5V25ZM37.5 37.5H75V75H37.5V37.5ZM62.5 137.5H50V150H62.5V137.5Z" fill="white"/>
<path d="M87.5 112.5H25V175H87.5V112.5ZM37.5 125H75V162.5H37.5V125ZM137.5 50H150V62.5H137.5V50Z" fill="white"/>
<path d="M112.5 25H175V87.5H112.5V25ZM125 37.5V75H162.5V37.5H125ZM100 100V125H112.5V137.5H100V150H125V125H137.5V150H150V137.5H175V125H137.5V100H100ZM125 125H112.5V112.5H125V125ZM175 150H162.5V162.5H137.5V175H175V150ZM125 175V162.5H100V175H125Z" fill="white"/>
<path d="M150 112.5H175V100H150V112.5Z" fill="white"/>
<circle cx="56.1111" cy="56.1111" r="7.22222" fill="white"/>
<path d="M3.88892 100L197.778 98.3334" stroke="#FDB623" stroke-width="7" stroke-linecap="round" stroke-linejoin="round"/>
</g>
<defs>
<clipPath id="clip0_4_992">
<rect width="200" height="200" fill="white"/>
</clipPath>
</defs>
</svg>
